<svg width="136" height="48" viewBox="0 0 136 48" fill="none" xmlns="http://www.w3.org/2000/svg">
<path d="M135.568 11.2773H128.516L124.434 28.4961L123.862 30.859C123.468 30.9664 123.074 31.0735 122.68 31.1456C121.964 31.2885 121.213 31.3601 120.426 31.3601C119.53 31.3601 118.815 31.2172 118.278 30.9664C117.776 30.7159 117.382 30.3582 117.168 29.8566C116.953 29.3911 116.881 28.8185 116.917 28.1742C116.953 27.53 117.096 26.8137 117.275 26.0984L119.423 17.1482L120.819 11.206H113.623L110.366 24.9521C109.972 26.5984 109.757 28.174 109.685 29.6777C109.614 31.1809 109.864 32.4698 110.366 33.6512C110.867 34.7967 111.762 35.6915 112.979 36.3715C114.196 37.0518 115.95 37.3733 118.17 37.3733C119.71 37.3733 121.07 37.231 122.215 36.9799C122.251 36.9799 122.323 36.9444 122.359 36.9444C122.036 38.376 121.392 39.5213 120.389 40.4168C119.351 41.3118 117.847 41.7771 115.843 41.7771C114.983 41.7771 114.196 41.7413 113.48 41.6345L112.084 47.4696C113.015 47.577 114.053 47.6485 115.198 47.6485C117.346 47.6485 119.208 47.398 120.819 46.9322C122.43 46.4309 123.79 45.7153 124.971 44.7127C126.117 43.7103 127.083 42.4574 127.871 40.99C128.658 39.4866 129.267 37.7318 129.732 35.6557L134.601 15.1793L135.568 11.2773ZM106.034 25.99C105.605 27.78 105.461 29.6056 105.64 31.3956C105.819 33.2212 106.535 35.9775 107.216 37.3736H100.414C99.5908 35.9781 99.6269 35.2978 99.4479 34.8683C98.5526 35.5844 97.5866 36.1928 96.5126 36.6583C95.4386 37.1239 94.257 37.3744 92.8967 37.3744C91.3214 37.3744 89.9614 37.0878 88.8517 36.551C87.7419 36.0144 86.8111 35.2625 86.095 34.3315C85.3787 33.4004 84.8782 32.3264 84.5553 31.0735C84.2331 29.8206 84.09 28.4961 84.09 27.0645C84.09 24.8802 84.4839 22.8402 85.2361 20.9073C86.0232 18.9741 87.0972 17.2911 88.458 15.8595C89.8183 14.4277 93.1475 11.2418 98.5887 11.2418H109.507L106.034 25.99ZM101.058 17.2195C97.7653 17.2195 97.1563 17.2195 95.7965 17.9001C94.8299 18.4012 94.042 19.153 93.362 20.012C92.682 20.8709 92.1091 21.8733 91.7154 23.0191C91.3217 24.1647 91.1067 25.3458 91.1067 26.5631C91.1067 28.0666 91.3578 29.2835 91.8586 30.1785C92.3593 31.0735 93.2904 31.503 94.6507 31.503C95.3671 31.503 96.0465 31.3601 96.62 31.0735C97.1923 30.7869 97.8366 30.3222 98.4813 29.6419C98.5532 28.8545 98.6603 28.0308 98.8034 27.1724C98.9463 26.3126 99.1255 25.4895 99.269 24.7734L101.058 17.2195ZM82.1571 21.6228C82.1571 23.9497 81.7631 26.0615 81.0112 27.9947C80.2597 29.9277 79.1857 31.5745 77.8251 32.9709C76.4646 34.3672 74.854 35.4409 72.9566 36.2289C71.0595 37.0157 69.0189 37.4096 66.7994 37.4096C65.7254 37.4096 64.6515 37.3023 63.5414 37.1233L61.394 45.7506H54.3413L62.539 11.3126H71.954C73.7445 11.3126 75.2832 11.5992 76.5361 12.1355C77.8249 12.6723 78.863 13.4245 79.7223 14.3555C80.5457 15.2864 81.1539 16.3958 81.5475 17.6488C81.9781 18.8662 82.1571 20.1909 82.1571 21.6228ZM64.8662 31.3956C65.4028 31.5385 66.0833 31.5745 66.871 31.5745C68.1239 31.5745 69.2339 31.3595 70.2716 30.894C71.2737 30.4287 72.169 29.7842 72.8848 28.9613C73.6011 28.1379 74.1377 27.1355 74.5674 25.99C74.9611 24.8439 75.1761 23.5554 75.1761 22.1596C75.1761 20.7988 74.8895 19.6177 74.2811 18.6867C73.6724 17.7206 72.6348 17.2193 71.1313 17.2193H68.3386L64.8662 31.3956ZM50.0459 31.3956C49.1506 31.3956 48.4354 31.2524 47.898 31.0019C47.3967 30.7514 47.0027 30.3935 46.7882 29.8919C46.5732 29.4266 46.5017 28.854 46.5377 28.2095C46.5732 27.565 46.7164 26.8489 46.8953 26.1331L49.043 17.1838H57.0618L58.5298 11.2413H50.4749L52.3362 3.7235L44.8184 4.9043L40.0573 25.0231C39.6633 26.6694 39.4486 28.2453 39.377 29.7482C39.3052 31.2516 39.556 32.5411 40.0573 33.7219C40.5584 34.8675 41.4534 35.7622 42.6705 36.4425C43.8876 37.1228 45.6419 37.4446 47.8614 37.4446C49.4009 37.4446 50.7609 37.3017 51.9067 37.0509C52.0141 37.0146 52.1931 36.9791 52.3002 36.9436L53.7681 30.8219C53.2668 31.0008 52.7657 31.1087 52.3002 31.1795C51.5852 31.3237 50.833 31.3956 50.0459 31.3956ZM32.1111 11.2773L25.8821 37.4094H32.9343L39.1273 11.2773H32.1111ZM39.8792 8.2699L40.9531 3.7235H33.9009L32.8269 8.2699H39.8792ZM16.5029 11.3126C18.0064 11.3126 19.3309 11.5992 20.4406 12.1355C21.5504 12.6723 22.4454 13.3884 23.197 14.3195C23.9131 15.2506 24.4499 16.3245 24.8078 17.5417C25.1657 18.7582 25.3447 20.0833 25.3447 21.5151C25.3447 23.6989 24.951 25.7394 24.1275 27.7082C23.3041 29.6413 22.2301 31.3595 20.8343 32.7911C19.4383 34.223 17.7914 35.3691 15.8942 36.1923C13.9968 37.0154 11.9563 37.4449 9.73702 37.4449C9.45043 37.4449 8.94937 37.4449 8.23357 37.4094C7.51751 37.4094 6.69434 37.3375 5.79932 37.1944C4.86851 37.0515 3.90191 36.8723 2.89952 36.622C1.89923 36.3788 0.927353 36.0308 0 35.5838L8.19751 1.14609L15.5363 0L12.6365 12.2068C13.2808 11.9207 13.8537 11.7057 14.4982 11.5628C15.1066 11.3844 15.7869 11.3126 16.5029 11.3126ZM10.3455 31.5745C11.4552 31.5745 12.4934 31.3237 13.46 30.7514C14.4395 30.2084 15.303 29.4787 16.0016 28.6034C16.7177 27.7082 17.2903 26.67 17.6843 25.5599C18.078 24.4144 18.2927 23.2336 18.2927 22.0165C18.2927 20.5128 18.0422 19.332 17.5408 18.4725C17.0398 17.6132 16.0016 17.2195 14.6413 17.2195C14.2116 17.2195 13.7463 17.2556 13.0302 17.4346C12.3142 17.5774 11.7057 17.9359 11.1331 18.4367L8.05435 31.4314C8.98516 31.5745 9.27148 31.6101 9.52228 31.6101C9.70123 31.5745 9.98755 31.5745 10.3455 31.5745Z" fill="#002855"/>
</svg>
