<svg width="57" height="41" viewBox="0 0 57 41" fill="none" xmlns="http://www.w3.org/2000/svg">
<path d="M55.1379 4.24138H52.3103V1.41379C52.3103 1.03883 52.1614 0.679228 51.8963 0.414091C51.6311 0.148953 51.2715 0 50.8966 0H31.1034C30.7285 0 30.3689 0.148953 30.1037 0.414091C29.8386 0.679228 29.6897 1.03883 29.6897 1.41379V4.24138H19.7931C18.3055 4.24291 16.8445 4.63559 15.5567 5.38003C14.2688 6.12447 13.1993 7.19449 12.4555 8.48276H1.41379C1.03883 8.48276 0.679228 8.63171 0.414091 8.89685C0.148953 9.16199 0 9.52159 0 9.89655V33.931C0 34.306 0.148953 34.6656 0.414091 34.9307C0.679228 35.1959 1.03883 35.3448 1.41379 35.3448H12.7241C13.0017 35.3446 13.273 35.2627 13.5043 35.1093C13.7356 34.956 13.9166 34.738 14.0248 34.4824C15.586 35.9505 17.6501 36.765 19.7931 36.7586H33.931V39.5862C33.931 39.9612 34.08 40.3208 34.3451 40.5859C34.6103 40.851 34.9699 41 35.3448 41H55.1379C55.5129 41 55.8725 40.851 56.1376 40.5859C56.4028 40.3208 56.5517 39.9612 56.5517 39.5862V5.65517C56.5517 5.28021 56.4028 4.92061 56.1376 4.65547C55.8725 4.39033 55.5129 4.24138 55.1379 4.24138ZM11.3103 32.5172H9.89655V29.6897C9.89655 29.3147 9.7476 28.9551 9.48246 28.69C9.21732 28.4248 8.85772 28.2759 8.48276 28.2759C8.1078 28.2759 7.74819 28.4248 7.48306 28.69C7.21792 28.9551 7.06897 29.3147 7.06897 29.6897V32.5172H2.82759V11.3103H11.3103V32.5172ZM14.1379 28.2759V12.7241C14.1379 11.2243 14.7337 9.78588 15.7943 8.72533C16.8548 7.66478 18.2933 7.06897 19.7931 7.06897H35.3448C36.0579 7.10237 36.7353 7.39036 37.2541 7.88065C37.773 8.37093 38.0988 9.03101 38.1724 9.74103C38.1936 10.1252 38.1361 10.5097 38.0035 10.8709C37.8709 11.2321 37.666 11.5625 37.4013 11.8418C37.1366 12.121 36.8177 12.3433 36.4641 12.495C36.1105 12.6468 35.7296 12.7247 35.3448 12.7241H25.4483C25.0733 12.7241 24.7137 12.8731 24.4486 13.1382C24.1834 13.4034 24.0345 13.763 24.0345 14.1379C24.0421 15.6028 23.6664 17.0442 22.9447 18.319C22.223 19.5938 21.1803 20.6576 19.9203 21.4048C19.76 21.5007 19.6202 21.6274 19.5091 21.7777C19.398 21.9279 19.3178 22.0987 19.2731 22.2801C19.2284 22.4615 19.2201 22.65 19.2487 22.8347C19.2773 23.0193 19.3422 23.1965 19.4397 23.3559C19.5665 23.5643 19.7452 23.7363 19.9582 23.8552C20.1713 23.9742 20.4115 24.0359 20.6555 24.0345C20.9093 24.0344 21.1583 23.966 21.3766 23.8366C22.8413 22.9501 24.0875 21.7449 25.0225 20.3106C25.9575 18.8763 26.5573 17.2497 26.7772 15.5517H29.6897V33.931H19.7931C18.2933 33.931 16.8548 33.3352 15.7943 32.2747C14.7337 31.2141 14.1379 29.7757 14.1379 28.2759ZM41 15.5517C41.5592 15.5517 42.1059 15.7176 42.5709 16.0283C43.0359 16.339 43.3983 16.7806 43.6123 17.2972C43.8264 17.8139 43.8824 18.3824 43.7733 18.9309C43.6642 19.4794 43.3949 19.9833 42.9994 20.3787C42.604 20.7742 42.1001 21.0435 41.5516 21.1526C41.0031 21.2617 40.4346 21.2057 39.9179 20.9917C39.4013 20.7776 38.9596 20.4152 38.6489 19.9502C38.3382 19.4852 38.1724 18.9386 38.1724 18.3793C38.1724 17.6294 38.4703 16.9102 39.0006 16.3799C39.5309 15.8496 40.2501 15.5517 41 15.5517ZM32.5172 15.5517H35.3448C35.6083 15.5727 35.8731 15.5727 36.1366 15.5517C35.6245 16.4065 35.3511 17.3829 35.3448 18.3793C35.3448 19.4978 35.6765 20.5912 36.2979 21.5212C36.9193 22.4511 37.8025 23.176 38.8359 23.604C39.8692 24.032 41.0063 24.144 42.1033 23.9258C43.2003 23.7076 44.2079 23.169 44.9988 22.3781C45.7897 21.5872 46.3283 20.5796 46.5465 19.4826C46.7647 18.3856 46.6527 17.2485 46.2247 16.2152C45.7967 15.1818 45.0718 14.2986 44.1418 13.6772C43.2119 13.0558 42.1185 12.7241 41 12.7241C40.7295 12.7306 40.46 12.759 40.1941 12.809V12.809C40.3072 12.611 40.4203 12.4131 40.5193 12.201V12.1162C40.7093 11.6642 40.8377 11.1887 40.901 10.7024C40.9576 10.4372 40.9907 10.1676 41 9.89655C41 9.79759 41 9.69862 41 9.59966C41 9.38759 41 9.18965 41 8.99172C40.8609 8.3039 40.587 7.65041 40.1941 7.06897H45.2414V8.48276C45.2414 8.85772 45.3903 9.21732 45.6555 9.48246C45.9206 9.7476 46.2802 9.89655 46.6552 9.89655C47.0301 9.89655 47.3897 9.7476 47.6549 9.48246C47.92 9.21732 48.069 8.85772 48.069 8.48276V5.65517C48.069 5.28021 47.92 4.92061 47.6549 4.65547C47.3897 4.39033 47.0301 4.24138 46.6552 4.24138H32.5172V2.82759H49.4828V33.931H32.5172V15.5517ZM53.7241 38.1724H36.7586V36.7586H50.8966C51.2715 36.7586 51.6311 36.6097 51.8963 36.3445C52.1614 36.0794 52.3103 35.7198 52.3103 35.3448V7.06897H53.7241V38.1724Z" fill="#29BCD0"/>
<path d="M46.6552 32.5173C47.0302 32.5173 47.3898 32.3683 47.6549 32.1032C47.9201 31.8381 48.069 31.4785 48.069 31.1035V28.2759C48.069 27.901 47.9201 27.5413 47.6549 27.2762C47.3898 27.0111 47.0302 26.8621 46.6552 26.8621C46.2803 26.8621 45.9207 27.0111 45.6555 27.2762C45.3904 27.5413 45.2414 27.901 45.2414 28.2759V29.6897H36.7587V28.2759C36.7587 27.901 36.6097 27.5413 36.3446 27.2762C36.0795 27.0111 35.7198 26.8621 35.3449 26.8621C34.9699 26.8621 34.6103 27.0111 34.3452 27.2762C34.08 27.5413 33.9311 27.901 33.9311 28.2759V31.1035C33.9311 31.4785 34.08 31.8381 34.3452 32.1032C34.6103 32.3683 34.9699 32.5173 35.3449 32.5173H46.6552Z" fill="#29BCD0"/>
<path d="M8.4827 26.8621C9.26352 26.8621 9.89649 26.2292 9.89649 25.4483C9.89649 24.6675 9.26352 24.0345 8.4827 24.0345C7.70189 24.0345 7.06891 24.6675 7.06891 25.4483C7.06891 26.2292 7.70189 26.8621 8.4827 26.8621Z" fill="#29BCD0"/>
</svg>
