<svg width="52" height="53" viewBox="0 0 52 53" fill="none" xmlns="http://www.w3.org/2000/svg">
<path d="M10.8161 37.5602H14.4277C14.8108 37.5602 15.1783 37.408 15.4492 37.1371C15.7201 36.8662 15.8723 36.4987 15.8723 36.1156C15.8723 35.7324 15.7201 35.365 15.4492 35.0941C15.1783 34.8231 14.8108 34.6709 14.4277 34.6709H12.9831C12.9831 34.2878 12.8309 33.9204 12.56 33.6494C12.289 33.3785 11.9216 33.2263 11.5384 33.2263C11.1553 33.2263 10.7879 33.3785 10.5169 33.6494C10.246 33.9204 10.0938 34.2878 10.0938 34.6709V34.7432C9.2161 34.9214 8.43591 35.4194 7.90471 36.1405C7.37352 36.8616 7.12921 37.7544 7.21922 38.6455C7.30923 39.5366 7.72714 40.3624 8.39181 40.9628C9.05648 41.5631 9.9205 41.895 10.8161 41.8941H12.2608C12.4523 41.8941 12.6361 41.9702 12.7715 42.1056C12.907 42.2411 12.9831 42.4248 12.9831 42.6164C12.9831 42.808 12.907 42.9917 12.7715 43.1272C12.6361 43.2626 12.4523 43.3387 12.2608 43.3387H8.64919C8.26605 43.3387 7.89861 43.4909 7.62769 43.7618C7.35677 44.0328 7.20457 44.4002 7.20457 44.7833C7.20457 45.1665 7.35677 45.5339 7.62769 45.8048C7.89861 46.0758 8.26605 46.228 8.64919 46.228H10.0938C10.0938 46.6111 10.246 46.9786 10.5169 47.2495C10.7879 47.5204 11.1553 47.6726 11.5384 47.6726C11.9216 47.6726 12.289 47.5204 12.56 47.2495C12.8309 46.9786 12.9831 46.6111 12.9831 46.228C13.9409 46.1322 14.8215 45.6598 15.4311 44.9148C16.0406 44.1698 16.3293 43.2131 16.2335 42.2552C16.1377 41.2974 15.6653 40.4168 14.9203 39.8073C14.1753 39.1977 13.2186 38.909 12.2608 39.0048H10.8161C10.6246 39.0048 10.4408 38.9287 10.3054 38.7933C10.1699 38.6578 10.0938 38.4741 10.0938 38.2825C10.0938 38.0909 10.1699 37.9072 10.3054 37.7718C10.4408 37.6363 10.6246 37.5602 10.8161 37.5602Z" fill="#29BCD0"/>
<path d="M24.5402 24.5586H17.3171C16.9339 24.5586 16.5665 24.7108 16.2956 24.9817C16.0247 25.2526 15.8725 25.6201 15.8725 26.0032V29.7304C14.1136 29.0224 12.2075 28.758 10.3223 28.9606C8.43709 29.1632 6.63069 29.8264 5.06236 30.8919C3.49403 31.9575 2.21194 33.3925 1.32913 35.0705C0.446329 36.7484 -0.0100732 38.6179 0.000168642 40.5139C0.0104105 42.4099 0.486982 44.2743 1.38786 45.9426C2.28874 47.611 3.58626 49.0321 5.16601 50.0806C6.74577 51.1291 8.55922 51.7728 10.4465 51.955C12.3338 52.1372 14.2369 51.8522 15.988 51.1253C16.0986 51.3864 16.2836 51.6092 16.5199 51.7659C16.7563 51.9226 17.0335 52.0063 17.3171 52.0065H24.5402C24.9234 52.0065 25.2908 51.8543 25.5617 51.5834C25.8326 51.3125 25.9848 50.945 25.9848 50.5619V26.0032C25.9848 25.6201 25.8326 25.2526 25.5617 24.9817C25.2908 24.7108 24.9234 24.5586 24.5402 24.5586ZM2.8708 40.4495C2.8708 38.1507 3.78401 35.946 5.40953 34.3205C7.03506 32.6949 9.23974 31.7817 11.5386 31.7817C13.3125 31.7726 15.045 32.318 16.4936 33.3419C17.638 34.1407 18.5726 35.204 19.218 36.4415C19.8633 37.6789 20.2003 39.0539 20.2003 40.4495C20.2003 41.8451 19.8633 43.2201 19.218 44.4575C18.5726 45.695 17.638 46.7583 16.4936 47.5571C15.0472 48.5854 13.3133 49.1313 11.5386 49.1173C9.23974 49.1173 7.03506 48.2041 5.40953 46.5785C3.78401 44.953 2.8708 42.7483 2.8708 40.4495ZM23.0956 40.4495V49.1173H19.1807C19.4118 48.915 19.6429 48.6839 19.8596 48.4672L20.1774 48.1205C20.3823 47.8897 20.5751 47.6486 20.7553 47.3982L20.8275 47.3115C21.0298 47.0226 21.2176 46.7481 21.4054 46.4447C21.4054 46.4447 21.4776 46.3291 21.5065 46.2569C21.6585 46.0061 21.7936 45.7455 21.911 45.4768C22.0583 45.1861 22.1886 44.887 22.301 44.5811C22.3877 44.3789 22.46 44.1477 22.5322 43.931C22.7969 43.2061 22.9857 42.4557 23.0956 41.6919C23.0956 41.4896 23.0956 41.2874 23.0956 41.0707C23.0956 40.854 23.0956 40.6517 23.0956 40.4495C23.0965 39.7955 23.0385 39.1428 22.9222 38.4993C22.9222 38.3259 22.9222 38.1525 22.8211 37.9792C22.7756 37.7296 22.7129 37.4834 22.6333 37.2424C22.5938 37.0858 22.5456 36.9314 22.4888 36.7801C22.3746 36.3983 22.2297 36.0263 22.0555 35.6678C21.9688 35.48 21.8821 35.2922 21.781 35.1044C21.6799 34.9166 21.5787 34.7143 21.4632 34.5265C21.0996 33.9015 20.6788 33.3115 20.2063 32.7641C20.0619 32.6052 19.9174 32.4463 19.7585 32.3018L19.2962 31.854L18.7617 31.435V27.4478H23.0956V40.4495Z" fill="#29BCD0"/>
<path d="M37.5418 13.0016H30.3187C29.9355 13.0016 29.5681 13.1538 29.2971 13.4247C29.0262 13.6956 28.874 14.0631 28.874 14.4462V50.5619C28.874 50.945 29.0262 51.3125 29.2971 51.5834C29.5681 51.8543 29.9355 52.0065 30.3187 52.0065H37.5418C37.9249 52.0065 38.2924 51.8543 38.5633 51.5834C38.8342 51.3125 38.9864 50.945 38.9864 50.5619V14.4462C38.9864 14.0631 38.8342 13.6956 38.5633 13.4247C38.2924 13.1538 37.9249 13.0016 37.5418 13.0016ZM36.0972 49.1173H31.7633V15.8908H36.0972V49.1173Z" fill="#29BCD0"/>
<path d="M50.5436 2.88934H43.3204C42.9373 2.88934 42.5698 3.04154 42.2989 3.31247C42.028 3.58339 41.8758 3.95083 41.8758 4.33397V50.5621C41.8758 50.9452 42.028 51.3126 42.2989 51.5836C42.5698 51.8545 42.9373 52.0067 43.3204 52.0067H50.5436C50.9267 52.0067 51.2941 51.8545 51.5651 51.5836C51.836 51.3126 51.9882 50.9452 51.9882 50.5621V4.33397C51.9882 3.95083 51.836 3.58339 51.5651 3.31247C51.2941 3.04154 50.9267 2.88934 50.5436 2.88934ZM49.0989 49.1174H44.765V5.7786H49.0989V49.1174Z" fill="#29BCD0"/>
<path d="M17.3171 21.6694C17.5073 21.6705 17.6957 21.6341 17.8717 21.5622C18.0478 21.4903 18.2078 21.3844 18.3428 21.2505L34.6527 4.92618V7.22314C34.6527 7.60628 34.8049 7.97372 35.0758 8.24464C35.3467 8.51556 35.7142 8.66777 36.0973 8.66777C36.4804 8.66777 36.8479 8.51556 37.1188 8.24464C37.3897 7.97372 37.5419 7.60628 37.5419 7.22314V1.44463C37.5419 1.06149 37.3897 0.694042 37.1188 0.423122C36.8479 0.152202 36.4804 0 36.0973 0H30.3188C29.9356 0 29.5682 0.152202 29.2973 0.423122C29.0264 0.694042 28.8742 1.06149 28.8742 1.44463C28.8742 1.82777 29.0264 2.19521 29.2973 2.46613C29.5682 2.73705 29.9356 2.88926 30.3188 2.88926H32.6157L16.2915 19.1991C16.1561 19.3334 16.0486 19.4932 15.9752 19.6692C15.9019 19.8453 15.8641 20.0341 15.8641 20.2248C15.8641 20.4155 15.9019 20.6043 15.9752 20.7804C16.0486 20.9564 16.1561 21.1162 16.2915 21.2505C16.4264 21.3844 16.5865 21.4903 16.7625 21.5622C16.9385 21.6341 17.127 21.6705 17.3171 21.6694Z" fill="#29BCD0"/>
</svg>
