<svg width="46" height="46" viewBox="0 0 46 46" fill="none" xmlns="http://www.w3.org/2000/svg">
<path d="M10.8612 8.94442H14.0556C14.3945 8.94442 14.7195 8.80979 14.9592 8.57016C15.1988 8.33053 15.3334 8.00553 15.3334 7.66664C15.3334 7.32775 15.1988 7.00274 14.9592 6.76311C14.7195 6.52348 14.3945 6.38886 14.0556 6.38886H12.7779C12.7779 6.04997 12.6432 5.72497 12.4036 5.48534C12.164 5.24571 11.839 5.11108 11.5001 5.11108C11.1612 5.11108 10.8362 5.24571 10.5966 5.48534C10.3569 5.72497 10.2223 6.04997 10.2223 6.38886V6.45275C9.44597 6.61039 8.75589 7.05088 8.28604 7.6887C7.8162 8.32652 7.60011 9.11616 7.67972 9.90435C7.75934 10.6925 8.12898 11.423 8.71688 11.954C9.30479 12.485 10.069 12.7785 10.8612 12.7777H12.139C12.3084 12.7777 12.4709 12.8451 12.5907 12.9649C12.7106 13.0847 12.7779 13.2472 12.7779 13.4166C12.7779 13.5861 12.7106 13.7486 12.5907 13.8684C12.4709 13.9882 12.3084 14.0555 12.139 14.0555H8.94454C8.60565 14.0555 8.28064 14.1901 8.04101 14.4298C7.80138 14.6694 7.66676 14.9944 7.66676 15.3333C7.66676 15.6722 7.80138 15.9972 8.04101 16.2368C8.28064 16.4765 8.60565 16.6111 8.94454 16.6111H10.2223C10.2223 16.95 10.3569 17.275 10.5966 17.5146C10.8362 17.7542 11.1612 17.8889 11.5001 17.8889C11.839 17.8889 12.164 17.7542 12.4036 17.5146C12.6432 17.275 12.7779 16.95 12.7779 16.6111C13.6251 16.5264 14.404 16.1086 14.9431 15.4496C15.4823 14.7906 15.7376 13.9444 15.6529 13.0972C15.5681 12.25 15.1503 11.4711 14.4914 10.9319C13.8324 10.3928 12.9862 10.1375 12.139 10.2222H10.8612C10.6918 10.2222 10.5293 10.1549 10.4094 10.0351C10.2896 9.91525 10.2223 9.75275 10.2223 9.58331C10.2223 9.41386 10.2896 9.25136 10.4094 9.13154C10.5293 9.01173 10.6918 8.94442 10.8612 8.94442Z" fill="#29BCD0"/>
<path d="M19.1667 16.6111H37.0555C37.3944 16.6111 37.7194 16.4765 37.9591 16.2369C38.1987 15.9973 38.3333 15.6722 38.3333 15.3334V7.66669C38.3333 7.32781 38.1987 7.0028 37.9591 6.76317C37.7194 6.52354 37.3944 6.38892 37.0555 6.38892H19.1667C18.8278 6.38892 18.5028 6.52354 18.2631 6.76317C18.0235 7.0028 17.8889 7.32781 17.8889 7.66669V15.3334C17.8889 15.6722 18.0235 15.9973 18.2631 16.2369C18.5028 16.4765 18.8278 16.6111 19.1667 16.6111ZM20.4444 8.94447H35.7778V14.0556H20.4444V8.94447Z" fill="#29BCD0"/>
<path d="M19.1667 21.7222H37.0555C37.3944 21.7222 37.7194 21.5876 37.9591 21.348C38.1987 21.1084 38.3333 20.7834 38.3333 20.4445C38.3333 20.1056 38.1987 19.7806 37.9591 19.5409C37.7194 19.3013 37.3944 19.1667 37.0555 19.1667H19.1667C18.8278 19.1667 18.5028 19.3013 18.2631 19.5409C18.0235 19.7806 17.8889 20.1056 17.8889 20.4445C17.8889 20.7834 18.0235 21.1084 18.2631 21.348C18.5028 21.5876 18.8278 21.7222 19.1667 21.7222Z" fill="#29BCD0"/>
<path d="M45.3611 18.055C45.1669 17.9428 44.9465 17.8838 44.7222 17.8838C44.4979 17.8838 44.2776 17.9428 44.0833 18.055L43.4572 18.4256V1.27778C43.4572 0.93889 43.3226 0.613882 43.083 0.374253C42.8433 0.134623 42.5183 0 42.1794 0H3.83333C3.49445 0 3.16944 0.134623 2.92981 0.374253C2.69018 0.613882 2.55556 0.93889 2.55556 1.27778V18.4383L1.92944 18.0678C1.73545 17.9528 1.51446 17.8911 1.28894 17.8892C1.06341 17.8872 0.841384 17.9449 0.645407 18.0566C0.44943 18.1682 0.286486 18.3297 0.173129 18.5246C0.0597717 18.7196 3.93311e-05 18.9411 0 19.1667V44.7222C0 45.0611 0.134623 45.3861 0.374253 45.6257C0.613882 45.8654 0.93889 46 1.27778 46H44.7222C45.0611 46 45.3861 45.8654 45.6257 45.6257C45.8654 45.3861 46 45.0611 46 44.7222V19.1667C46.0009 18.9415 45.9423 18.7201 45.8301 18.5249C45.7179 18.3297 45.5561 18.1676 45.3611 18.055ZM5.11111 2.55555H40.8889V19.9333L33.5161 24.2778H19.1667C18.8278 24.2778 18.5028 24.4124 18.2631 24.652C18.0235 24.8917 17.8889 25.2167 17.8889 25.5555C17.8889 25.8944 18.0235 26.2194 18.2631 26.4591C18.5028 26.6987 18.8278 26.8333 19.1667 26.8333H29.1717L23 30.4622L5.11111 19.9333V2.55555ZM43.4444 43.4444H2.55556V21.4028L3.16889 21.7606L22.3356 33.0305C22.5298 33.1427 22.7501 33.2017 22.9744 33.2017C23.1987 33.2017 23.4191 33.1427 23.6133 33.0305L42.78 21.7606L43.3933 21.4028L43.4444 43.4444Z" fill="#29BCD0"/>
</svg>
