<svg width="49" height="46" viewBox="0 0 49 46" fill="none" xmlns="http://www.w3.org/2000/svg">
<path d="M47.6469 8.11765H35.4704V5.41176C35.4704 3.97648 34.9002 2.59997 33.8853 1.58507C32.8704 0.570166 31.4939 0 30.0587 0H19.2351C17.7998 0 16.4233 0.570166 15.4084 1.58507C14.3935 2.59997 13.8234 3.97648 13.8234 5.41176V8.11765H1.64689C1.28806 8.11765 0.943939 8.26019 0.690213 8.51391C0.436487 8.76764 0.293945 9.11177 0.293945 9.47059V44.6471C0.293945 45.0059 0.436487 45.35 0.690213 45.6037C0.943939 45.8575 1.28806 46 1.64689 46H47.6469C48.0057 46 48.3498 45.8575 48.6036 45.6037C48.8573 45.35 48.9998 45.0059 48.9998 44.6471V9.47059C48.9998 9.11177 48.8573 8.76764 48.6036 8.51391C48.3498 8.26019 48.0057 8.11765 47.6469 8.11765ZM39.5292 10.8235H46.2939V16.2353C46.2939 18.0294 45.5812 19.75 44.3126 21.0187C43.044 22.2873 41.3233 23 39.5292 23V10.8235ZM36.8234 23H34.1175V10.8235H36.8234V23ZM31.4116 36.5294V43.2941H17.8822V36.5294C18.241 36.5294 18.5851 36.3869 18.8389 36.1331C19.0926 35.8794 19.2351 35.5353 19.2351 35.1765C19.2351 34.8176 19.0926 34.4735 18.8389 34.2198C18.5851 33.9661 18.241 33.8235 17.8822 33.8235V25.7059H31.4116V33.8235C31.0528 33.8235 30.7086 33.9661 30.4549 34.2198C30.2012 34.4735 30.0587 34.8176 30.0587 35.1765C30.0587 35.5353 30.2012 35.8794 30.4549 36.1331C30.7086 36.3869 31.0528 36.5294 31.4116 36.5294ZM15.1763 33.8235H12.4704V25.7059H15.1763V33.8235ZM31.4116 10.8235V23H17.8822V10.8235H31.4116ZM34.1175 25.7059H36.8234V33.8235H34.1175V25.7059ZM16.5292 5.41176C16.5292 4.69412 16.8143 4.00587 17.3218 3.49842C17.8292 2.99097 18.5175 2.70588 19.2351 2.70588H30.0587C30.7763 2.70588 31.4645 2.99097 31.972 3.49842C32.4795 4.00587 32.7645 4.69412 32.7645 5.41176V8.11765H16.5292V5.41176ZM15.1763 10.8235V23H12.4704V10.8235H15.1763ZM2.99983 10.8235H9.76453V23C7.97042 23 6.24979 22.2873 4.98116 21.0187C3.71254 19.75 2.99983 18.0294 2.99983 16.2353V10.8235ZM2.99983 22.8512C3.8806 23.7533 4.93265 24.4706 6.09427 24.9608C7.2559 25.451 8.50371 25.7043 9.76453 25.7059V33.8235C9.40571 33.8235 9.06159 33.9661 8.80786 34.2198C8.55413 34.4735 8.41159 34.8176 8.41159 35.1765C8.41159 35.5353 8.55413 35.8794 8.80786 36.1331C9.06159 36.3869 9.40571 36.5294 9.76453 36.5294V43.2941H2.99983V22.8512ZM12.4704 43.2941V36.5294H15.1763V43.2941H12.4704ZM34.1175 43.2941V36.5294H36.8234V43.2941H34.1175ZM46.2939 43.2941H39.5292V36.5294C39.8881 36.5294 40.2322 36.3869 40.4859 36.1331C40.7396 35.8794 40.8822 35.5353 40.8822 35.1765C40.8822 34.8176 40.7396 34.4735 40.4859 34.2198C40.2322 33.9661 39.8881 33.8235 39.5292 33.8235V25.7059C40.7901 25.7043 42.0379 25.451 43.1995 24.9608C44.3611 24.4706 45.4132 23.7533 46.2939 22.8512V43.2941Z" fill="#29BCD0"/>
</svg>
